<svg height="512pt" viewBox="-39 0 512 512" width="512pt" xmlns="http://www.w3.org/2000/svg"><path d="m433.628906 278.144531c-10.59375-22.9375-41.3125-37.761719-72.984375-37.761719-26.863281 0-53.496093 10.515626-74.148437 28.929688l-1.496094.6875h-14.304688c-.007812 0-.011718.003906-.019531.003906-42.730469 0-75.675781 34.625-75.675781 74.996094 0 8.289062-6.707031 15-15 15-8.289062 0-15-6.710938-15-15 1.753906-3 1.171875-105 105.675781-105h4.203125c3.222656-2.476562 6.742188-4.386719 10.121094-6.566406v-20.855469l44.125-153.871094c3.421875-11.945312-3.484375-24.402343-15.425781-27.828125-11.949219-3.425781-24.40625 3.480469-27.832031 15.425782l-30.867188 107.640624v26.054688c0 8.285156-6.714844 15-15 15-8.28125 0-15-6.714844-15-15v-157.5c0-12.425781-10.074219-22.5-22.5-22.5s-22.5 10.074219-22.5 22.5v157.5c0 8.285156-6.714844 15-15 15-8.28125 0-15-6.714844-15-15v-26.054688l-30.867188-107.640624c-3.421874-11.945313-15.882812-18.851563-27.828124-15.425782-11.945313 3.425782-18.851563 15.882813-15.425782 27.828125.964844 3.367188 38.164063 133.089844 35.988282 125.5l-73.738282-71.203125c-8.9375-8.636718-23.179687-8.386718-31.8125.554688-8.632812 8.9375-8.386718 23.179687.554688 31.8125l38.128906 36.824218v66.207032c0 45 10.5 90 30 130.5v118.097656c0 8.097656 6.597656 15 15 15h180c8.402344 0 15-6.902344 15-15 0-3.25 0-65.015625 0-61.933594 0-.023437.015625-.042968.015625-.066406.542969-30.144531 8.714844-59.898438 23.65625-86.046875 25.5625-44.75 62.523437-50.492187 88.890625-50.492187 7.355469 0 14.546875.453124 21.402344.9375 11.671875.855468 19.300781-11.179688 14.664062-21.253907zm0 0"/></svg>