<svg height="512pt" viewBox="-106 0 512 512" width="512pt" xmlns="http://www.w3.org/2000/svg"><path d="m120 128.5v-105c0-12.425781-10.074219-22.5-22.5-22.5s-22.5 10.074219-22.5 22.5v105c0 12.425781 10.074219 22.5 22.5 22.5s22.5-10.074219 22.5-22.5zm0 0"/><path d="m22.5 151c12.425781 0 22.5-10.074219 22.5-22.5v-75c0-12.425781-10.074219-22.5-22.5-22.5s-22.5 10.074219-22.5 22.5v75c0 12.425781 10.074219 22.5 22.5 22.5zm0 0"/><path d="m195 22.5c0-12.425781-10.074219-22.5-22.5-22.5s-22.5 10.074219-22.5 22.5v38.5h45zm0 0"/><path d="m247.5 1c-12.425781 0-22.5 10.074219-22.5 22.5v37.5c16.417969.734375 31.5 4.835938 45 11.242188v-48.742188c0-12.425781-10.074219-22.5-22.5-22.5zm0 0"/><path d="m161.101562 172.898438c-7.597656-3.84375-14.210937-9.152344-19.921874-15.363282-9.421876 14.121094-25.46875 23.464844-43.679688 23.464844-14.695312 0-27.960938-6.109375-37.5-15.875-9.539062 9.765625-22.804688 15.875-37.5 15.875-7.6875 0-14.9375-1.753906-21.523438-4.734375 2.285157 39.160156 11.964844 77.910156 29.023438 113.234375v207.5c0 8.402344 6.597656 15 15 15h180c8.402344 0 15-6.597656 15-15v-204.402344c3.300781-3.296875 8.101562-8.398437 13.800781-13.796875 30.523438-31.230469 46.199219-72.152343 46.199219-112.5 0-38.402343-28.597656-73.191406-75-75.300781h-60c-8.402344 0-15 6.597656-15 15 0 23.699219 19.5 45 45 45h30c8.402344 0 15 6.597656 15 15 0 8.140625-6.335938 15-15 15-41.398438 0-75 33.601562-75 75 0 8.402344-6.597656 15-15 15s-15-6.597656-15-15c0-33.898438 15.902344-63.898438 41.101562-83.101562zm0 0"/></svg>