<svg height="511pt" viewBox="-105 0 511 511.99988" width="511pt" xmlns="http://www.w3.org/2000/svg"><path d="m75.5 142.5v75c0 12.425781 10.074219 22.5 22.5 22.5s22.5-10.074219 22.5-22.5v-75c0-12.425781-10.074219-22.5-22.5-22.5s-22.5 10.074219-22.5 22.5zm0 0"/><path d="m.5 172.5v45c0 12.425781 10.074219 22.5 22.5 22.5s22.5-10.074219 22.5-22.5v-45c0-12.425781-10.074219-22.5-22.5-22.5s-22.5 10.074219-22.5 22.5zm0 0"/><path d="m45.5 512h180c8.402344 0 15-6.597656 15-15v-85.402344c3.300781-3.296875 8.101562-8.398437 13.800781-13.796875 30.523438-31.230469 46.199219-72.152343 46.199219-112.5 0-38.402343-28.597656-73.191406-75-75.300781h-60c-8.402344 0-15 6.597656-15 15 0 23.699219 19.5 45 45 45h30c8.402344 0 15 6.597656 15 15 0 8.140625-6.335938 15-15 15-41.398438 0-75 33.601562-75 75 0 8.402344-6.597656 15-15 15s-15-6.597656-15-15c0-33.898438 15.902344-63.898438 41.101562-83.101562-13.929687-7.050782-24.886718-18.726563-32.132812-32.640626-8.796875 6.644532-19.621094 10.742188-31.46875 10.742188-14.695312 0-27.960938-6.109375-37.5-15.875-9.539062 9.765625-22.804688 15.875-37.5 15.875-7.6875 0-14.941406-1.753906-21.527344-4.738281 2.28125 39.242187 11.972656 77.914062 29.027344 113.339843v118.398438c0 8.402344 6.597656 15 15 15zm0 0"/><path d="m254.195312.875c-11.945312-3.421875-24.40625 3.484375-27.828124 15.429688l-30.867188 107.640624-30.867188-107.640624c-3.421874-11.945313-15.882812-18.851563-27.828124-15.429688-11.945313 3.429688-18.851563 15.886719-15.429688 27.832031l43.40625 151.355469c.246094-.003906.472656-.074219.71875-.074219h60c.246094.011719.46875.082031.710938.097657l43.410156-151.378907c3.425781-11.945312-3.480469-24.402343-15.425782-27.832031zm0 0"/></svg>